<?xml version="1.0" ?><!DOCTYPE svg  PUBLIC '-//W3C//DTD SVG 1.1//EN'  'http://www.w3.org/Graphics/SVG/1.1/DTD/svg11.dtd'><svg enable-background="new 0 0 500 500" height="500px" id="Layer_1" version="1.1" viewBox="0 0 500 500" width="500px" xml:space="preserve" xmlns="http://www.w3.org/2000/svg" xmlns:xlink="http://www.w3.org/1999/xlink"><g><path clip-rule="evenodd" d="M328.349,299.354c0.865-2.304,3.439-3.479,5.753-2.615   c2.313,0.865,3.479,3.439,2.624,5.753l-29.93,80.436c-0.864,2.303-3.439,3.479-5.742,2.615c-2.313-0.865-3.489-3.43-2.625-5.743   L328.349,299.354z" fill="#4a719b" fill-rule="evenodd"/><path clip-rule="evenodd" d="M347.004,314.822l26.319,26.318l-26.319,26.319   c-1.961,1.951-1.961,5.149,0,7.11l0,0c1.961,1.951,5.159,1.951,7.11,0l29.869-29.869l0,0c1.962-1.961,1.962-5.159,0-7.12   l-29.869-29.869c-1.951-1.961-5.149-1.961-7.11,0l0,0C345.043,309.673,345.043,312.871,347.004,314.822z" fill="	#4a719b" fill-rule="evenodd"/><path clip-rule="evenodd" d="M288.141,314.822l-26.309,26.318l26.309,26.319   c1.961,1.951,1.961,5.149,0,7.11l0,0c-1.951,1.951-5.149,1.951-7.11,0l-29.869-29.869l0,0c-1.961-1.961-1.961-5.159,0-7.12   l29.869-29.869c1.961-1.961,5.159-1.961,7.11,0l0,0C290.102,309.673,290.102,312.871,288.141,314.822z" fill="	#4a719b" fill-rule="evenodd"/><rect clip-rule="evenodd" fill="none" fill-rule="evenodd" height="184.566" stroke="#000000" stroke-linecap="round" stroke-linejoin="round" stroke-miterlimit="2.6131" stroke-width="10" width="229.641" x="201.027" y="248.777"/><path clip-rule="evenodd" d="M72.82,348.372h17.59c3.842,0,6.979,3.147,6.979,6.989l0,0   c0,3.842-3.138,6.979-6.979,6.979H72.82c-3.842,0-6.979-3.138-6.979-6.979l0,0C65.841,351.52,68.979,348.372,72.82,348.372z" fill="#000000" fill-rule="evenodd"/><path clip-rule="evenodd" d="M131.091,344.188c6.165,0,11.163,4.998,11.163,11.173   c0,6.165-4.998,11.163-11.163,11.163s-11.163-4.998-11.163-11.163C119.928,349.187,124.926,344.188,131.091,344.188z" fill="#000000" fill-rule="evenodd"/><path clip-rule="evenodd" d="   M160.155,380.796H43.435c-10.118,0-18.435-8.297-18.435-18.435V333.92h135.155V380.796z" fill="none" fill-rule="evenodd" stroke="#000000" stroke-linecap="round" stroke-linejoin="round" stroke-miterlimit="2.6131" stroke-width="10"/><path clip-rule="evenodd" d="   M239.153,108.865v139.76h-12.33h-11.032h-8.699h-6.064v0.152l-7.211-0.253H178.58c-10.117,0-18.425,8.298-18.425,18.435v66.961H25   V108.865H239.153z" fill="none" fill-rule="evenodd" stroke="#000000" stroke-linecap="round" stroke-linejoin="round" stroke-miterlimit="2.6131" stroke-width="10"/><path clip-rule="evenodd" d="M104.601,93.99c-2.655,0-4.807-2.151-4.807-4.807   s2.151-4.808,4.807-4.808h85.856c2.655,0,4.817,2.152,4.817,4.808s-2.162,4.807-4.817,4.807H104.601z" fill="#000000" fill-rule="evenodd"/><path clip-rule="evenodd" d="M81.832,81.842c4.505,0,8.146,3.65,8.146,8.146   c0,4.495-3.641,8.136-8.146,8.136c-4.485,0-8.137-3.641-8.137-8.136C73.695,85.492,77.347,81.842,81.832,81.842z" fill="#000000" fill-rule="evenodd"/><path clip-rule="evenodd" d="   M43.435,66.495h177.294c10.128,0,18.425,8.307,18.425,18.424v23.946H25V84.919C25,74.782,33.297,66.495,43.435,66.495z" fill="none" fill-rule="evenodd" stroke="#000000" stroke-linecap="round" stroke-linejoin="round" stroke-miterlimit="2.6131" stroke-width="10"/><path clip-rule="evenodd" d="M445.221,299.475v-17.589c0-3.842,3.147-6.98,6.989-6.98l0,0   c3.842,0,6.979,3.139,6.979,6.98v17.589c0,3.842-3.138,6.979-6.979,6.979l0,0C448.368,306.454,445.221,303.316,445.221,299.475z" fill="#000000" fill-rule="evenodd"/><path clip-rule="evenodd" d="M445.221,400.396v-17.589c0-3.842,3.147-6.98,6.989-6.98l0,0   c3.842,0,6.979,3.148,6.979,6.98v17.589c0,3.842-3.138,6.99-6.979,6.99l0,0C448.368,407.387,445.221,404.238,445.221,400.396z" fill="#000000" fill-rule="evenodd"/><path clip-rule="evenodd" d="M441.047,342.127c0-6.165,4.998-11.153,11.163-11.153   s11.164,4.988,11.164,11.153s-4.999,11.163-11.164,11.163S441.047,348.292,441.047,342.127z" fill="#000000" fill-rule="evenodd"/><path clip-rule="evenodd" d="M185.006,368.627c0,2.645-2.162,4.808-4.817,4.808   c-2.645,0-4.807-2.163-4.807-4.808v-85.866c0-2.655,2.162-4.808,4.807-4.808c2.655,0,4.817,2.152,4.817,4.808V368.627z" fill="#000000" fill-rule="evenodd"/><path clip-rule="evenodd" d="M172.848,391.386c0-4.495,3.66-8.136,8.146-8.136   c4.506,0,8.146,3.641,8.146,8.136s-3.641,8.136-8.146,8.136C176.508,399.521,172.848,395.881,172.848,391.386z" fill="#000000" fill-rule="evenodd"/><path clip-rule="evenodd" d="   M430.668,248.777h2.937h22.971c10.117,0,18.425,8.348,18.425,18.435V415.07c0,10.097-8.328,18.435-18.425,18.435h-22.971h-2.937   V248.777z" fill="none" fill-rule="evenodd" stroke="#000000" stroke-linecap="round" stroke-linejoin="round" stroke-miterlimit="2.6131" stroke-width="10"/><path clip-rule="evenodd" d="   M160.155,415.07V267.212c0-10.137,8.308-18.435,18.425-18.435h15.236h7.211v184.728h-7.211H178.58   C168.463,433.505,160.155,425.218,160.155,415.07z" fill="none" fill-rule="evenodd" stroke="#000000" stroke-linecap="round" stroke-linejoin="round" stroke-miterlimit="2.6131" stroke-width="10"/><path clip-rule="evenodd" d="   M63.85,200.384h19.611c1.197,0,2.173,0.985,2.173,2.182v19.602c0,1.196-0.976,2.183-2.173,2.183H63.85   c-1.187,0-2.172-0.986-2.172-2.183v-19.602C61.678,201.369,62.663,200.384,63.85,200.384z" fill="none" fill-rule="evenodd" stroke="#000000" stroke-linecap="round" stroke-linejoin="round" stroke-miterlimit="2.6131" stroke-width="10"/><path clip-rule="evenodd" d="   M63.85,261.62h19.611c1.197,0,2.173,0.976,2.173,2.173v19.611c0,1.196-0.976,2.172-2.173,2.172H63.85   c-1.187,0-2.172-0.976-2.172-2.172v-19.611C61.678,262.596,62.663,261.62,63.85,261.62z" fill="none" fill-rule="evenodd" stroke="#000000" stroke-linecap="round" stroke-linejoin="round" stroke-miterlimit="2.6131" stroke-width="10"/><path clip-rule="evenodd" d="   M117.806,261.62h19.601c1.207,0,2.183,0.986,2.183,2.173v19.611c0,1.196-0.976,2.172-2.183,2.172h-19.601   c-1.197,0-2.183-0.976-2.183-2.172v-19.611C115.623,262.606,116.608,261.62,117.806,261.62z" fill="none" fill-rule="evenodd" stroke="#000000" stroke-linecap="round" stroke-linejoin="round" stroke-miterlimit="2.6131" stroke-width="10"/><path clip-rule="evenodd" d="   M117.806,200.384h19.601c1.207,0,2.183,0.985,2.183,2.182v19.602c0,1.196-0.976,2.183-2.183,2.183h-19.601   c-1.197,0-2.183-0.986-2.183-2.183v-19.602C115.623,201.369,116.608,200.384,117.806,200.384z" fill="none" fill-rule="evenodd" stroke="#000000" stroke-linecap="round" stroke-linejoin="round" stroke-miterlimit="2.6131" stroke-width="10"/><path clip-rule="evenodd" d="   M171.751,200.384h19.611c1.196,0,2.172,0.985,2.172,2.182v19.602c0,1.196-0.976,2.183-2.172,2.183h-19.611   c-1.196,0-2.172-0.986-2.172-2.183v-19.602C169.579,201.369,170.555,200.384,171.751,200.384z" fill="none" fill-rule="evenodd" stroke="#000000" stroke-linecap="round" stroke-linejoin="round" stroke-miterlimit="2.6131" stroke-width="10"/><path clip-rule="evenodd" d="   M63.85,140.363h19.611c1.197,0,2.173,0.976,2.173,2.173v19.61c0,1.197-0.976,2.173-2.173,2.173H63.85   c-1.187,0-2.172-0.976-2.172-2.173v-19.61C61.678,141.339,62.663,140.363,63.85,140.363z" fill="none" fill-rule="evenodd" stroke="#000000" stroke-linecap="round" stroke-linejoin="round" stroke-miterlimit="2.6131" stroke-width="10"/><path clip-rule="evenodd" d="   M117.806,140.363h19.601c1.207,0,2.183,0.976,2.183,2.173v19.61c0,1.197-0.976,2.173-2.183,2.173h-19.601   c-1.197,0-2.183-0.976-2.183-2.173v-19.61C115.623,141.339,116.608,140.363,117.806,140.363z" fill="none" fill-rule="evenodd" stroke="#000000" stroke-linecap="round" stroke-linejoin="round" stroke-miterlimit="2.6131" stroke-width="10"/><path clip-rule="evenodd" d="   M171.751,140.363h19.611c1.196,0,2.172,0.976,2.172,2.173v19.61c0,1.197-0.976,2.173-2.172,2.173h-19.611   c-1.196,0-2.172-0.976-2.172-2.173v-19.61C169.579,141.339,170.555,140.363,171.751,140.363z" fill="none" fill-rule="evenodd" stroke="#000000" stroke-linecap="round" stroke-linejoin="round" stroke-miterlimit="2.6131" stroke-width="10"/></g></svg>